<?xml version="1.0" encoding="UTF-8"?>
<svg xmlns="http://www.w3.org/2000/svg" xmlns:xlink="http://www.w3.org/1999/xlink" width="35px" height="35px" viewBox="0 0 35 35" version="1.1">
<g id="surface1">
<path style=" stroke:none;fill-rule:nonzero;fill:rgb(0%,0%,0%);fill-opacity:1;" d="M 17.484375 2.609375 C 9.035156 2.605469 2.1875 9.445312 2.1875 17.894531 C 2.1875 24.570312 6.46875 30.25 12.433594 32.335938 C 13.238281 32.535156 13.113281 31.964844 13.113281 31.574219 L 13.113281 28.925781 C 8.476562 29.46875 8.289062 26.398438 7.976562 25.886719 C 7.347656 24.8125 5.863281 24.539062 6.304688 24.027344 C 7.363281 23.484375 8.4375 24.164062 9.6875 26.007812 C 10.589844 27.34375 12.347656 27.117188 13.242188 26.894531 C 13.4375 26.09375 13.851562 25.375 14.425781 24.816406 C 9.621094 23.957031 7.617188 21.023438 7.617188 17.539062 C 7.617188 15.84375 8.175781 14.289062 9.269531 13.035156 C 8.570312 10.96875 9.335938 9.199219 9.4375 8.933594 C 11.421875 8.757812 13.488281 10.355469 13.648438 10.484375 C 14.777344 10.179688 16.0625 10.019531 17.507812 10.019531 C 18.957031 10.019531 20.25 10.1875 21.386719 10.492188 C 21.773438 10.199219 23.6875 8.824219 25.53125 8.992188 C 25.632812 9.257812 26.375 10.984375 25.71875 13.027344 C 26.828125 14.285156 27.390625 15.851562 27.390625 17.546875 C 27.390625 21.042969 25.375 23.976562 20.554688 24.824219 C 21.390625 25.644531 21.859375 26.765625 21.859375 27.933594 L 21.859375 31.78125 C 21.886719 32.085938 21.859375 32.390625 22.371094 32.390625 C 28.421875 30.351562 32.78125 24.632812 32.78125 17.898438 C 32.78125 9.449219 25.933594 2.609375 17.484375 2.609375 Z M 17.484375 2.609375 "/>
</g>
</svg>
